<svg xmlns="http://www.w3.org/2000/svg" viewBox="0 0 96 112" role="img" aria-label="Ilustração genérica de impressora 3D">
  <defs><linearGradient id="g" x1="0" y1="0" x2="1" y2="1"><stop stop-color="#6d4aff"/><stop offset="1" stop-color="#22d3ee"/></linearGradient></defs>
  <path d="M15 95h66l6 8H9z" fill="#172033"/><path d="M18 12h8v76h-8zm52 0h8v76h-8z" fill="#39455c"/>
  <path d="M14 8h68v9H14zM15 84h66v10H15z" rx="3" fill="#202a3d"/><path d="M25 58h46v5H25z" fill="#59657a"/>
  <path d="M42 18h12v27H42z" fill="#303b51"/><path d="M37 42h22l-3 10H40z" fill="url(#g)"/>
  <path d="M32 80h32L54 57H42z" fill="#8b5cf6" opacity=".75"/><path d="M26 79h44v6H26z" fill="#4d5970"/>
  <circle cx="22" cy="99" r="2" fill="#22d3ee"/><circle cx="30" cy="99" r="2" fill="#6d4aff"/>
</svg>
